:SAMPLES-PER-SECOND 30
:FULLY-SPECIFIED
:DEGREES
132
root  4.89404 40.0302 2.32035 37.5889 -85.6022 -38.3023
RightUpLeg  0.894551 -6.98642 -5.65745
RightLeg  3.30583 -8.73408 -1.40031
RightFoot  0.58159 -1.3081 12.5191
RightToes  1.16414e-010 0 -3.6325e-017
Spine  3.7278 -1.42549 0.0230406
Spine1  8.56912 -1.96673 1.86858
HEad  -4.95047 -7.87082 1.26704
LeftShoulder1  1.71942 -4.2339 -15.4184
LeftArm  11.1306 20.1427 -57.5922
LeftForeArm  -4.6593 -23.3545 -5.30058
LeftHand  -0.498014 -0.244469 10.3448
RightShoulder  1.43853 2.24163 18.582
RightArm  14.5021 -20.7958 51.4973
RightForeArm  7.49052 24.6979 4.89758
RightHand  -0.539564 -0.246058 -12.2023
LeftUpLeg  2.89078 12.6407 16.0754
LeftLeg  0.6115 1.28784 2.06588
LeftFoot  0.839542 1.83698 -17.1554
LeftToes  7.09373e-011 9.9627e-011 8.96859e-012
133
root  4.8239 40.0239 2.23171 33.3656 -85.0418 -34.0236
RightUpLeg  0.746747 -6.90943 -5.45931
RightLeg  3.98958 -9.31317 -1.58856
RightFoot  0.196773 -1.26569 12.4947
RightToes  1.16414e-010 0 -3.6325e-017
Spine  4.10177 -1.42611 0.185242
Spine1  8.17707 -1.89901 1.6929
HEad  -5.98449 -7.10626 1.52391
LeftShoulder1  1.72633 -4.23577 -15.51
LeftArm  10.4024 20.6661 -57.3513
LeftForeArm  -2.20019 -24.5954 -5.366
LeftHand  -0.468156 0.0928308 10.3387
RightShoulder  1.4702 2.32969 18.7592
RightArm  14.8985 -21.0229 51.4417
RightForeArm  9.25754 25.1535 4.9044
RightHand  -0.525227 -0.260197 -11.91
LeftUpLeg  2.75484 12.6126 16.216
LeftLeg  0.469173 0.705351 2.15562
LeftFoot  1.06477 1.90184 -17.4427
LeftToes  7.09373e-011 9.9627e-011 8.96859e-012
134
root  4.74431 39.995 2.14232 29.754 -84.4094 -30.7487
RightUpLeg  1.11451 -7.00144 -5.3379
RightLeg  4.57463 -9.75079 -1.62824
RightFoot  -0.461339 -1.19489 12.4678
RightToes  1.16414e-010 0 -3.6325e-017
Spine  4.90401 -1.45142 0.403792
Spine1  7.80938 -1.84563 1.50814
HEad  -6.79129 -6.53501 1.77752
LeftShoulder1  1.73531 -4.25064 -15.59
LeftArm  9.82201 21.4335 -56.9499
LeftForeArm  1.19153 -26.6755 -5.67296
LeftHand  -0.458048 0.816562 11.6359
RightShoulder  1.50308 2.42444 18.9236
RightArm  15.0959 -21.2897 51.2898
RightForeArm  11.1444 26.071 5.00737
RightHand  -0.48824 -0.680697 -12.0179
LeftUpLeg  2.71859 12.677 16.5381
LeftLeg  1.01397 -0.205739 2.25915
LeftFoot  0.766976 1.90714 -17.9046
LeftToes  7.09373e-011 9.9627e-011 8.96859e-012
135
root  4.67462 39.9168 2.08048 26.3375 -83.8187 -27.7738
RightUpLeg  1.35777 -7.18607 -5.35613
RightLeg  5.74086 -10.1283 -1.74929
RightFoot  -1.57531 -1.09608 12.6587
RightToes  1.16414e-010 0 -3.6325e-017
Spine  5.96944 -1.48351 0.851388
Spine1  7.25648 -1.69728 0.987488
HEad  -7.51165 -6.20442 1.98105
LeftShoulder1  1.71594 -4.23196 -15.3751
LeftArm  10.0655 22.4155 -56.6541
LeftForeArm  5.00897 -29.4764 -6.13471
LeftHand  -0.524227 1.10542 14.1407
RightShoulder  1.48053 2.36779 18.7718
RightArm  14.2928 -21.8947 51.3861
RightForeArm  14.6016 27.9553 5.24707
RightHand  -0.412421 -1.26177 -11.5009
LeftUpLeg  2.26409 12.8477 16.8261
LeftLeg  2.72097 -1.32661 2.16649
LeftFoot  -0.611539 1.71311 -18.0699
LeftToes  7.09373e-011 9.9627e-011 8.96859e-012
136
root  4.64441 39.8175 2.07935 22.2834 -83.3858 -23.9774
RightUpLeg  0.709852 -7.32295 -5.62129
RightLeg  8.08488 -10.2768 -2.30727
RightFoot  -2.54568 -1.04125 13.2537
RightToes  1.16414e-010 0 -3.6325e-017
Spine  7.22253 -1.57372 1.52171
Spine1  6.29512 -1.48142 0.128068
HEad  -8.13911 -5.91638 2.19324
LeftShoulder1  1.6861 -4.21949 -14.992
LeftArm  9.98632 23.9132 -56.3642
LeftForeArm  10.2661 -33.2853 -6.80679
LeftHand  -0.663183 0.932138 17.2525
RightShoulder  1.44354 2.2684 18.5502
RightArm  12.5774 -23.0006 51.3507
RightForeArm  20.0781 31.3921 5.75735
RightHand  -0.352441 -1.45158 -10.2762
LeftUpLeg  0.763009 12.2496 16.6874
LeftLeg  6.0553 -1.406 1.89897
LeftFoot  -1.99128 1.49912 -18.0603
LeftToes  7.09373e-011 9.9627e-011 8.96859e-012
